# xmcd
#
# Track frame offsets: 
#        150
#        16038
#        32396
#        53683
#        71458
#        92396
#        118993
#        137997
#        154806
#        171239
#        191104
#        219827
#        248253
#        270133
#        282416
#        302724
#        321233
#
# Disc length: 4512 seconds
#
# Revision: 0
# Processed by: cddbd v1.5.2PL0 Copyright (c) Steve Scherf et al.
# Submitted via: ExactAudioCopyFreeDBPlugin 1.0
#
DISCID=de119e11
DTITLE=Steve Forbert - "Jackrabbit Slim"
DYEAR=1979
DGENRE=Country
TTITLE0=Romeo's Tune
TTITLE1=The Sweet Love That You Give Sure Goes A Long Way
TTITLE2=I'm In Love With You
TTITLE3=Say Goodbye To Little Jo
TTITLE4=Wait
TTITLE5=Make It All So Real
TTITLE6=Baby
TTITLE7=Complications
TTITLE8=Sadly Sorta Like A Soap Opera
TTITLE9=January 23 - 30, 1978
TTITLE10=The Oil Song
TTITLE11=Make It All So Real (Alternate Version)
TTITLE12=Witch Blues
TTITLE13=Oh, Camile
TTITLE14=Smoky Windows
TTITLE15=Poor Boy
TTITLE16=Romeo's Tune (Live)
EXTD=
EXTT0=
EXTT1=
EXTT2=
EXTT3=
EXTT4=
EXTT5=
EXTT6=
EXTT7=
EXTT8=
EXTT9=
EXTT10=
EXTT11=
EXTT12=
EXTT13=
EXTT14=
EXTT15=
EXTT16=
PLAYORDER=
